<svg xmlns="http://www.w3.org/2000/svg" viewBox="0 0 800 600" role="img" aria-labelledby="title">
  <title id="title">Stylised artist palette and brush</title>
  <defs>
    <linearGradient id="bg" x1="0" y1="1" x2="1" y2="0"><stop stop-color="#fff1f2"/><stop offset="1" stop-color="#fecdd3"/></linearGradient>
    <filter id="shadow"><feDropShadow dx="0" dy="18" stdDeviation="18" flood-color="#881337" flood-opacity=".17"/></filter>
  </defs>
  <rect width="800" height="600" fill="url(#bg)"/>
  <path d="M99 454c62 52 128 64 197 38" fill="none" stroke="#fb7185" stroke-width="18" stroke-linecap="round" opacity=".38"/>
  <g filter="url(#shadow)">
    <path d="M395 114c-142 0-257 91-257 204 0 95 84 171 188 171 51 0 79-22 79-55 0-22-17-38-17-62 0-29 28-51 62-51h81c75 0 131-41 131-98 0-72-111-109-267-109z" fill="#fffaf5"/>
    <circle cx="276" cy="226" r="33" fill="#f97316"/><circle cx="377" cy="183" r="33" fill="#eab308"/>
    <circle cx="487" cy="195" r="33" fill="#10b981"/><circle cx="553" cy="275" r="33" fill="#8b5cf6"/>
    <circle cx="283" cy="354" r="42" fill="#0f172a"/>
    <path d="M573 92L391 385" stroke="#78350f" stroke-width="27" stroke-linecap="round"/>
    <path d="M603 46c9 36-2 67-30 91l-38-24c9-37 31-59 68-67z" fill="#f43f5e"/>
  </g>
</svg>

