<svg xmlns="http://www.w3.org/2000/svg" viewBox="0 0 800 600" role="img" aria-labelledby="title">
  <title id="title">Stylised electronics modules, breadboard and test components</title>
  <defs>
    <linearGradient id="bg" x1="0" y1="0" x2="1" y2="1"><stop stop-color="#f0fdf4"/><stop offset="1" stop-color="#bbf7d0"/></linearGradient>
    <filter id="shadow"><feDropShadow dx="0" dy="14" stdDeviation="14" flood-color="#0f172a" flood-opacity=".16"/></filter>
  </defs>
  <rect width="800" height="600" fill="url(#bg)"/>
  <g filter="url(#shadow)">
    <rect x="80" y="92" width="410" height="416" rx="34" fill="#fff"/>
    <path d="M136 156h296M136 198h296M136 402h296M136 444h296" stroke="#cbd5e1" stroke-width="12" stroke-linecap="round" stroke-dasharray="3 20"/>
    <path d="M270 132v340" stroke="#fb7185" stroke-width="8" opacity=".65"/><path d="M300 132v340" stroke="#60a5fa" stroke-width="8" opacity=".65"/>
    <rect x="536" y="116" width="184" height="152" rx="24" fill="#047857"/>
    <rect x="536" y="332" width="184" height="152" rx="24" fill="#0f172a"/>
  </g>
  <circle cx="588" cy="164" r="24" fill="#fef3c7"/><circle cx="668" cy="216" r="30" fill="#f97316"/>
  <path d="M578 390h98M578 426h62" stroke="#6ee7b7" stroke-width="14" stroke-linecap="round"/>
  <path d="M126 276c80-86 162 86 240 0s152 40 250 6" fill="none" stroke="#f97316" stroke-width="12" stroke-linecap="round"/>
</svg>
